<svg width="768" height="400" viewBox="0 0 768 400" fill="none" xmlns="http://www.w3.org/2000/svg">
<rect width="768" height="400" fill="#D9D9D9"/>
<path d="M184.918 294.61L197.26 290.863L203.142 390.866L198.298 392.999L184.918 294.61Z" fill="white"/>
<path d="M278.055 265.733L296.798 259.854L319.808 351.326L314.445 352.882L278.055 265.733Z" fill="white"/>
<path d="M57.8073 287.06L34.1622 362.566L27.8184 359.684L38.7758 284.178L57.8073 287.06Z" fill="white"/>
<path d="M168.365 297.838H175.286L184.917 294.61L198.296 393L192.414 391.443L168.365 297.838Z" fill="white"/>
<path d="M144.433 10.1623L254.643 9.64355L252.509 253.974L159.947 262.505L146.74 267.807L38.9531 261.294L39.2415 254.378L157.294 239.564L144.433 10.1623Z" fill="url(#paint0_linear_1432_22)"/>
<path d="M106.545 10.5666L144.435 10.1631L162.255 248.903L32.3223 255.762L24.998 203.195L54.9293 197.374L122.289 193.685L106.545 10.5666Z" fill="url(#paint1_linear_1432_22)"/>
<path d="M10 259.968L10.6344 276.164C10.6344 276.164 10.346 282.85 18.8813 283.138C27.4166 283.427 168.307 297.779 168.307 297.779C168.307 297.779 179.61 300.776 197.2 290.804L298.758 258.642C298.758 258.642 302.276 258.354 301.93 252.302C301.584 246.25 319.289 15.9254 319.289 15.2914C319.289 14.6573 316.982 12.2942 312.426 12.006C308.274 11.7754 264.733 9.12402 264.733 9.12402L264.963 184.288C264.963 184.288 266.117 200.369 258.792 201.003C242.01 202.444 173.555 201.407 164.731 208.439C158.791 213.223 172.171 254.204 173.555 262.561C173.959 265.155 155.677 264.002 149.967 265.559C145.354 266.884 10 259.968 10 259.968Z" fill="url(#paint2_linear_1432_22)"/>
<path d="M154.235 202.618C154.235 202.618 143.969 202.618 143.566 209.765C143.162 215.759 142.931 252.59 142.874 264.291C142.874 265.963 142.758 267.576 142.412 269.19C142.008 271.208 144.2 275.473 149.333 275.588C159.194 275.876 170.267 275.588 170.267 275.588C170.267 275.588 174.996 274.147 174.131 266.135C173.266 258.124 164.442 216.854 164.442 216.854C164.442 216.854 161.79 207.056 171.132 207.056C180.475 207.056 254.871 201.695 254.871 201.695C254.871 201.695 265.136 202.156 265.54 192.761C265.943 183.366 267.789 15.9835 267.789 15.9835C267.789 15.9835 269.115 8.83625 262.887 8.43278C256.658 8.02931 244.201 9.29736 244.201 9.29736C244.201 9.29736 240.164 9.75847 240.164 15.5223C240.164 21.2862 247.2 188.15 246.393 191.551C245.182 196.796 232.321 198.007 225.631 198.468C218.942 198.929 154.235 202.618 154.235 202.618Z" fill="#4C4CBF"/>
<path d="M83.2948 19.096C83.2948 19.096 82.1414 7.3377 90.1 8.02936C95.6364 8.54811 101.115 9.41269 106.594 10.5078C106.594 10.5078 109.996 10.0467 110.631 13.9085C111.265 17.7703 137.275 193.857 135.487 194.548C133.699 195.24 43.2135 200.485 41.195 200.485C39.1766 200.485 31.737 200.254 32.6597 206.134C33.5825 212.013 39.2919 252.763 39.2919 254.377C39.2919 255.991 40.0416 261.986 38.4845 262.447C36.9274 262.908 10.0527 261.64 10.0527 261.64L12.0712 206.307C12.0712 206.307 11.9559 196.911 17.3769 196.22C22.798 195.528 116.744 191.839 117.84 190.744C118.935 189.649 116.052 180.139 114.899 175.873C114.322 173.452 83.2948 19.096 83.2948 19.096Z" fill="#4C4CBF"/>
<defs>
<linearGradient id="paint0_linear_1432_22" x1="41.2025" y1="41.3908" x2="229.883" y2="209.616" gradientUnits="userSpaceOnUse">
<stop stop-color="#58CAEA"/>
<stop offset="1" stop-color="#4C4CBF"/>
</linearGradient>
<linearGradient id="paint1_linear_1432_22" x1="227.125" y1="-44.3392" x2="97.0866" y2="200.086" gradientUnits="userSpaceOnUse">
<stop stop-color="#58CAEA"/>
<stop offset="1" stop-color="#4C4CBF"/>
</linearGradient>
<linearGradient id="paint2_linear_1432_22" x1="38.0611" y1="94.8078" x2="329.315" y2="215.578" gradientUnits="userSpaceOnUse">
<stop stop-color="#58CAEA"/>
<stop offset="1" stop-color="#4C4CBF"/>
</linearGradient>
</defs>
</svg>
