<svg width="768" height="400" viewBox="0 0 768 400" fill="none" xmlns="http://www.w3.org/2000/svg">
<rect width="768" height="400" fill="#D9D9D9"/>
<path d="M191.732 297.776L204.555 293.884L210.666 397.783L205.633 399.999L191.732 297.776Z" fill="white"/>
<path d="M288.498 267.774L307.971 261.666L331.879 356.702L326.306 358.319L288.498 267.774Z" fill="white"/>
<path d="M59.669 289.932L35.1027 368.38L28.5117 365.386L39.8961 286.938L59.669 289.932Z" fill="white"/>
<path d="M174.535 301.131H181.725L191.732 297.777L205.633 400L199.521 398.383L174.535 301.131Z" fill="white"/>
<path d="M149.672 2.24697L264.175 1.70801L261.958 255.558L165.79 264.421L152.069 269.93L40.082 263.163L40.3816 255.977L163.034 240.587L149.672 2.24697Z" fill="url(#paint0_linear_1426_40)"/>
<path d="M110.306 2.66626L149.672 2.24707L168.187 250.288L33.1916 257.414L25.582 202.8L56.6794 196.751L126.663 192.919L110.306 2.66626Z" fill="url(#paint1_linear_1426_40)"/>
<path d="M10 261.785L10.6591 278.612C10.6591 278.612 10.3595 285.559 19.2274 285.858C28.0952 286.158 174.475 301.069 174.475 301.069C174.475 301.069 186.218 304.183 204.493 293.823L310.009 260.407C310.009 260.407 313.664 260.108 313.304 253.82C312.945 247.532 331.34 8.23433 331.34 7.5756C331.34 6.91687 328.943 4.46161 324.209 4.16219C319.895 3.92265 274.657 1.16797 274.657 1.16797L274.897 183.157C274.897 183.157 276.095 199.864 268.486 200.523C251.05 202.02 179.927 200.942 170.76 208.248C164.588 213.219 178.489 255.796 179.927 264.48C180.347 267.174 161.353 265.977 155.421 267.594C150.627 268.971 10 261.785 10 261.785Z" fill="url(#paint2_linear_1426_40)"/>
<path d="M159.853 202.2C159.853 202.2 149.188 202.2 148.769 209.626C148.349 215.854 148.11 254.12 148.05 266.276C148.05 268.013 147.93 269.69 147.57 271.366C147.151 273.462 149.428 277.894 154.76 278.014C165.006 278.313 176.511 278.014 176.511 278.014C176.511 278.014 181.424 276.516 180.525 268.193C179.626 259.869 170.459 216.991 170.459 216.991C170.459 216.991 167.703 206.811 177.409 206.811C187.116 206.811 264.41 201.242 264.41 201.242C264.41 201.242 275.075 201.721 275.495 191.96C275.914 182.199 277.832 8.2944 277.832 8.2944C277.832 8.2944 279.21 0.868733 272.739 0.449543C266.268 0.0303523 253.325 1.34781 253.325 1.34781C253.325 1.34781 249.131 1.82688 249.131 7.81532C249.131 13.8038 256.441 187.169 255.602 190.702C254.344 196.152 240.982 197.409 234.032 197.888C227.081 198.367 159.853 202.2 159.853 202.2Z" fill="#4C4CBF"/>
<path d="M86.1504 11.5283C86.1504 11.5283 84.952 -0.688108 93.2207 0.0305044C98.9728 0.569464 104.665 1.46773 110.357 2.60553C110.357 2.60553 113.892 2.12646 114.551 6.13871C115.211 10.151 142.234 193.098 140.376 193.816C138.519 194.535 44.5075 199.984 42.4103 199.984C40.3132 199.984 32.5838 199.745 33.5425 205.853C34.5012 211.961 40.433 254.3 40.433 255.976C40.433 257.653 41.212 263.881 39.5942 264.36C37.9764 264.839 10.0547 263.522 10.0547 263.522L12.1518 206.033C12.1518 206.033 12.032 196.272 17.6643 195.553C23.2965 194.834 120.903 191.002 122.041 189.864C123.18 188.726 120.184 178.845 118.985 174.414C118.386 171.899 86.1504 11.5283 86.1504 11.5283Z" fill="#4C4CBF"/>
<defs>
<linearGradient id="paint0_linear_1426_40" x1="42.419" y1="34.6921" x2="238.451" y2="209.472" gradientUnits="userSpaceOnUse">
<stop stop-color="#58CAEA"/>
<stop offset="1" stop-color="#4C4CBF"/>
</linearGradient>
<linearGradient id="paint1_linear_1426_40" x1="235.584" y1="-54.3786" x2="100.479" y2="199.57" gradientUnits="userSpaceOnUse">
<stop stop-color="#58CAEA"/>
<stop offset="1" stop-color="#4C4CBF"/>
</linearGradient>
<linearGradient id="paint2_linear_1426_40" x1="39.1544" y1="90.19" x2="341.756" y2="215.666" gradientUnits="userSpaceOnUse">
<stop stop-color="#58CAEA"/>
<stop offset="1" stop-color="#4C4CBF"/>
</linearGradient>
</defs>
</svg>
