<svg width="768" height="400" viewBox="0 0 768 400" fill="none" xmlns="http://www.w3.org/2000/svg">
<rect width="768" height="400" fill="#D9D9D9"/>
<path d="M181.732 297.776L194.555 293.884L200.666 397.783L195.633 399.999L181.732 297.776Z" fill="white"/>
<path d="M278.498 267.774L297.971 261.666L321.879 356.702L316.306 358.319L278.498 267.774Z" fill="white"/>
<path d="M49.669 289.932L25.1027 368.38L18.5117 365.386L29.8961 286.938L49.669 289.932Z" fill="white"/>
<path d="M164.535 301.131H171.725L181.732 297.777L195.633 400L189.521 398.383L164.535 301.131Z" fill="white"/>
<path d="M139.672 2.24697L254.175 1.70801L251.958 255.558L155.79 264.421L142.069 269.93L30.082 263.163L30.3816 255.977L153.034 240.587L139.672 2.24697Z" fill="url(#paint0_linear_1424_46)"/>
<path d="M100.306 2.66626L139.672 2.24707L158.187 250.288L23.1916 257.414L15.582 202.8L46.6794 196.751L116.663 192.919L100.306 2.66626Z" fill="url(#paint1_linear_1424_46)"/>
<path d="M0 261.785L0.659097 278.612C0.659097 278.612 0.359507 285.559 9.22735 285.858C18.0952 286.158 164.475 301.069 164.475 301.069C164.475 301.069 176.218 304.183 194.493 293.823L300.009 260.407C300.009 260.407 303.664 260.108 303.304 253.82C302.945 247.532 321.34 8.23433 321.34 7.5756C321.34 6.91687 318.943 4.46161 314.209 4.16219C309.895 3.92265 264.657 1.16797 264.657 1.16797L264.897 183.157C264.897 183.157 266.095 199.864 258.486 200.523C241.05 202.02 169.927 200.942 160.76 208.248C154.588 213.219 168.489 255.796 169.927 264.48C170.347 267.174 151.353 265.977 145.421 267.594C140.627 268.971 0 261.785 0 261.785Z" fill="url(#paint2_linear_1424_46)"/>
<path d="M149.853 202.2C149.853 202.2 139.188 202.2 138.769 209.626C138.349 215.854 138.11 254.12 138.05 266.276C138.05 268.013 137.93 269.69 137.57 271.366C137.151 273.462 139.428 277.894 144.76 278.014C155.006 278.313 166.511 278.014 166.511 278.014C166.511 278.014 171.424 276.516 170.525 268.193C169.626 259.869 160.459 216.991 160.459 216.991C160.459 216.991 157.703 206.811 167.409 206.811C177.116 206.811 254.41 201.242 254.41 201.242C254.41 201.242 265.075 201.721 265.495 191.96C265.914 182.199 267.832 8.2944 267.832 8.2944C267.832 8.2944 269.21 0.868733 262.739 0.449543C256.268 0.0303523 243.325 1.34781 243.325 1.34781C243.325 1.34781 239.131 1.82688 239.131 7.81532C239.131 13.8038 246.441 187.169 245.602 190.702C244.344 196.152 230.982 197.409 224.032 197.888C217.081 198.367 149.853 202.2 149.853 202.2Z" fill="#4C4CBF"/>
<path d="M76.1504 11.5283C76.1504 11.5283 74.952 -0.688108 83.2207 0.0305044C88.9728 0.569464 94.665 1.46773 100.357 2.60553C100.357 2.60553 103.892 2.12646 104.551 6.13871C105.211 10.151 132.234 193.098 130.376 193.816C128.519 194.535 34.5075 199.984 32.4103 199.984C30.3132 199.984 22.5838 199.745 23.5425 205.853C24.5012 211.961 30.433 254.3 30.433 255.976C30.433 257.653 31.212 263.881 29.5942 264.36C27.9764 264.839 0.0546875 263.522 0.0546875 263.522L2.15181 206.033C2.15181 206.033 2.03198 196.272 7.66426 195.553C13.2965 194.834 110.903 191.002 112.041 189.864C113.18 188.726 110.184 178.845 108.985 174.414C108.386 171.899 76.1504 11.5283 76.1504 11.5283Z" fill="#4C4CBF"/>
<defs>
<linearGradient id="paint0_linear_1424_46" x1="32.419" y1="34.6921" x2="228.451" y2="209.472" gradientUnits="userSpaceOnUse">
<stop stop-color="#58CAEA"/>
<stop offset="1" stop-color="#4C4CBF"/>
</linearGradient>
<linearGradient id="paint1_linear_1424_46" x1="225.584" y1="-54.3786" x2="90.4792" y2="199.57" gradientUnits="userSpaceOnUse">
<stop stop-color="#58CAEA"/>
<stop offset="1" stop-color="#4C4CBF"/>
</linearGradient>
<linearGradient id="paint2_linear_1424_46" x1="29.1544" y1="90.19" x2="331.756" y2="215.666" gradientUnits="userSpaceOnUse">
<stop stop-color="#58CAEA"/>
<stop offset="1" stop-color="#4C4CBF"/>
</linearGradient>
</defs>
</svg>
