<svg width="768" height="400" viewBox="0 0 768 400" fill="none" xmlns="http://www.w3.org/2000/svg">
<rect width="768" height="400" fill="#D9D9D9"/>
<path d="M145.512 52.5752C145.512 52.5752 80.1588 88.9917 97.0285 356.79H253.032C253.032 356.79 263.576 127.558 196.113 52.5752H145.512Z" fill="#F9F9F9"/>
<path d="M130.302 356.436V373.338H124.495V386.707H110.73V393H239.362V385.529H224.313V374.714H217.673V356.436H130.302Z" fill="#F9F9F9"/>
<path d="M172.902 244.174C201.294 244.174 224.31 221.157 224.31 192.766C224.31 164.374 201.294 141.357 172.902 141.357C144.51 141.357 121.494 164.374 121.494 192.766C121.494 221.157 144.51 244.174 172.902 244.174Z" fill="url(#paint0_linear_1432_25)"/>
<path d="M172.901 236.479C196.43 236.479 215.504 217.405 215.504 193.876C215.504 170.347 196.43 151.273 172.901 151.273C149.373 151.273 130.299 170.347 130.299 193.876C130.299 217.405 149.373 236.479 172.901 236.479Z" fill="white"/>
<path d="M173.333 224.534C190.265 224.534 203.991 210.808 203.991 193.875C203.991 176.943 190.265 163.217 173.333 163.217C156.4 163.217 142.674 176.943 142.674 193.875C142.674 210.808 156.4 224.534 173.333 224.534Z" fill="url(#paint1_linear_1432_25)"/>
<path d="M106.462 332.969H26.8336C24.7869 332.975 22.7633 332.536 20.903 331.683C19.0427 330.83 17.39 329.582 16.0594 328.027C10.2933 321.24 3.93426 308.118 21.2982 292.929C46.718 270.688 102.648 244.173 102.648 244.173L106.462 332.969Z" fill="url(#paint2_linear_1432_25)"/>
<path d="M239.357 327.023H316.185C318.176 327.02 320.141 326.575 321.939 325.72C323.736 324.866 325.322 323.622 326.581 322.08C332.149 315.293 338.277 302.171 321.523 286.982C296.993 264.742 243.031 238.234 243.031 238.234L239.357 327.023Z" fill="url(#paint3_linear_1432_25)"/>
<path d="M177.332 291.501H172.25C168.174 291.501 164.869 294.805 164.869 298.881V367.027C164.869 371.104 168.174 374.408 172.25 374.408H177.332C181.408 374.408 184.712 371.104 184.712 367.027V298.881C184.712 294.805 181.408 291.501 177.332 291.501Z" fill="url(#paint4_linear_1432_25)"/>
<path d="M132.235 67.946H205.949C206.22 67.9343 206.484 67.8517 206.713 67.7064C206.942 67.5611 207.128 67.3582 207.254 67.118C207.38 66.8777 207.441 66.6087 207.43 66.3377C207.42 66.0667 207.338 65.8032 207.193 65.5737L172.638 8.73735C172.517 8.52013 172.341 8.33811 172.128 8.209C171.915 8.0799 171.673 8.00811 171.424 8.00065C171.175 7.99318 170.928 8.0503 170.708 8.16641C170.488 8.28252 170.302 8.45367 170.167 8.66321L131.008 65.4996C130.845 65.7288 130.747 65.9983 130.725 66.2789C130.704 66.5595 130.759 66.8407 130.885 67.0922C131.011 67.3438 131.204 67.5562 131.442 67.7066C131.679 67.857 131.954 67.9398 132.235 67.946V67.946Z" fill="url(#paint5_linear_1432_25)"/>
<path d="M197.264 190.491C197.264 190.491 202.206 203.901 179.34 217.674L197.264 190.491Z" fill="url(#paint6_linear_1432_25)"/>
<defs>
<linearGradient id="paint0_linear_1432_25" x1="121.502" y1="192.766" x2="224.31" y2="192.766" gradientUnits="userSpaceOnUse">
<stop stop-color="#CD94EF"/>
<stop offset="1" stop-color="#7A5BF5"/>
</linearGradient>
<linearGradient id="paint1_linear_1432_25" x1="142.666" y1="193.875" x2="203.991" y2="193.875" gradientUnits="userSpaceOnUse">
<stop stop-color="#CD94EF"/>
<stop offset="1" stop-color="#7A5BF5"/>
</linearGradient>
<linearGradient id="paint2_linear_1432_25" x1="9.99681" y1="288.571" x2="106.462" y2="288.571" gradientUnits="userSpaceOnUse">
<stop stop-color="#CD94EF"/>
<stop offset="1" stop-color="#7A5BF5"/>
</linearGradient>
<linearGradient id="paint3_linear_1432_25" x1="332.987" y1="282.624" x2="239.553" y2="282.624" gradientUnits="userSpaceOnUse">
<stop stop-color="#CD94EF"/>
<stop offset="1" stop-color="#7A5BF5"/>
</linearGradient>
<linearGradient id="paint4_linear_1432_25" x1="184.712" y1="332.95" x2="164.869" y2="332.95" gradientUnits="userSpaceOnUse">
<stop stop-color="#CD94EF"/>
<stop offset="1" stop-color="#7A5BF5"/>
</linearGradient>
<linearGradient id="paint5_linear_1432_25" x1="130.761" y1="38.004" x2="207.424" y2="38.004" gradientUnits="userSpaceOnUse">
<stop stop-color="#CD94EF"/>
<stop offset="1" stop-color="#7A5BF5"/>
</linearGradient>
<linearGradient id="paint6_linear_1432_25" x1="212.67" y1="197.665" x2="171.782" y2="208.406" gradientUnits="userSpaceOnUse">
<stop stop-color="white" stop-opacity="0"/>
<stop offset="1" stop-color="white"/>
</linearGradient>
</defs>
</svg>
