<svg width="768" height="400" viewBox="0 0 768 400" fill="none" xmlns="http://www.w3.org/2000/svg">
<rect width="768" height="400" fill="#D9D9D9"/>
<path d="M150.793 46.3115C150.793 46.3115 82.8931 84.1468 100.42 362.379H262.502C262.502 362.379 273.456 124.216 203.365 46.3115H150.793Z" fill="#F9F9F9"/>
<path d="M134.988 362.011V379.572H128.955V393.462H114.654V400H248.297V392.238H232.662V381.001H225.764V362.011H134.988Z" fill="#F9F9F9"/>
<path d="M179.249 245.375C208.747 245.375 232.66 221.462 232.66 191.964C232.66 162.466 208.747 138.553 179.249 138.553C149.751 138.553 125.838 162.466 125.838 191.964C125.838 221.462 149.751 245.375 179.249 245.375Z" fill="url(#paint0_linear_1426_42)"/>
<path d="M179.249 237.38C203.694 237.38 223.511 217.563 223.511 193.118C223.511 168.672 203.694 148.855 179.249 148.855C154.803 148.855 134.986 168.672 134.986 193.118C134.986 217.563 154.803 237.38 179.249 237.38Z" fill="white"/>
<path d="M179.697 224.971C197.289 224.971 211.55 210.71 211.55 193.118C211.55 175.526 197.289 161.265 179.697 161.265C162.105 161.265 147.844 175.526 147.844 193.118C147.844 210.71 162.105 224.971 179.697 224.971Z" fill="url(#paint1_linear_1426_42)"/>
<path d="M110.22 337.63H27.4894C25.363 337.636 23.2606 337.18 21.3278 336.294C19.395 335.407 17.6779 334.111 16.2954 332.495C10.3048 325.443 3.69793 311.81 21.7384 296.029C48.1486 272.923 106.258 245.374 106.258 245.374L110.22 337.63Z" fill="url(#paint2_linear_1426_42)"/>
<path d="M248.293 331.452H328.114C330.182 331.449 332.224 330.987 334.092 330.099C335.96 329.211 337.607 327.919 338.915 326.317C344.7 319.265 351.067 305.632 333.66 289.851C308.174 266.744 252.11 239.204 252.11 239.204L248.293 331.452Z" fill="url(#paint3_linear_1426_42)"/>
<path d="M183.851 294.547H178.57C174.335 294.547 170.902 297.98 170.902 302.215V373.016C170.902 377.251 174.335 380.684 178.57 380.684H183.851C188.086 380.684 191.519 377.251 191.519 373.016V302.215C191.519 297.98 188.086 294.547 183.851 294.547Z" fill="url(#paint4_linear_1426_42)"/>
<path d="M136.997 62.2816H213.584C213.865 62.2695 214.139 62.1836 214.376 62.0326C214.614 61.8817 214.808 61.6708 214.939 61.4213C215.07 61.1717 215.133 60.8922 215.122 60.6106C215.111 60.329 215.026 60.0553 214.876 59.8169L178.975 0.766077C178.848 0.540394 178.666 0.351278 178.445 0.217146C178.223 0.0830137 177.971 0.00842931 177.713 0.000673525C177.454 -0.00708226 177.198 0.052256 176.969 0.17289C176.741 0.293525 176.547 0.471341 176.407 0.689045L135.722 59.7398C135.553 59.978 135.451 60.2579 135.429 60.5495C135.406 60.841 135.464 61.1332 135.595 61.3945C135.726 61.6559 135.926 61.8766 136.173 62.0329C136.42 62.1892 136.705 62.2751 136.997 62.2816Z" fill="url(#paint5_linear_1426_42)"/>
<path d="M204.56 189.602C204.56 189.602 209.695 203.534 185.938 217.843L204.56 189.602Z" fill="url(#paint6_linear_1426_42)"/>
<defs>
<linearGradient id="paint0_linear_1426_42" x1="125.846" y1="191.964" x2="232.66" y2="191.964" gradientUnits="userSpaceOnUse">
<stop stop-color="#CD94EF"/>
<stop offset="1" stop-color="#7A5BF5"/>
</linearGradient>
<linearGradient id="paint1_linear_1426_42" x1="147.835" y1="193.118" x2="211.55" y2="193.118" gradientUnits="userSpaceOnUse">
<stop stop-color="#CD94EF"/>
<stop offset="1" stop-color="#7A5BF5"/>
</linearGradient>
<linearGradient id="paint2_linear_1426_42" x1="9.99668" y1="291.502" x2="110.22" y2="291.502" gradientUnits="userSpaceOnUse">
<stop stop-color="#CD94EF"/>
<stop offset="1" stop-color="#7A5BF5"/>
</linearGradient>
<linearGradient id="paint3_linear_1426_42" x1="345.57" y1="285.324" x2="248.496" y2="285.324" gradientUnits="userSpaceOnUse">
<stop stop-color="#CD94EF"/>
<stop offset="1" stop-color="#7A5BF5"/>
</linearGradient>
<linearGradient id="paint4_linear_1426_42" x1="191.519" y1="337.611" x2="170.902" y2="337.611" gradientUnits="userSpaceOnUse">
<stop stop-color="#CD94EF"/>
<stop offset="1" stop-color="#7A5BF5"/>
</linearGradient>
<linearGradient id="paint5_linear_1426_42" x1="135.465" y1="31.1729" x2="215.116" y2="31.1729" gradientUnits="userSpaceOnUse">
<stop stop-color="#CD94EF"/>
<stop offset="1" stop-color="#7A5BF5"/>
</linearGradient>
<linearGradient id="paint6_linear_1426_42" x1="220.566" y1="197.054" x2="178.085" y2="208.215" gradientUnits="userSpaceOnUse">
<stop stop-color="white" stop-opacity="0"/>
<stop offset="1" stop-color="white"/>
</linearGradient>
</defs>
</svg>
