<svg width="768" height="400" viewBox="0 0 768 400" fill="none" xmlns="http://www.w3.org/2000/svg">
<rect width="768" height="400" fill="#D9D9D9"/>
<path d="M59.3555 77.2457L105.344 73.8447L114.802 194.105H72.7419L59.3555 77.2457Z" fill="white"/>
<path d="M85.1986 97.6971L66.1914 99.1963L66.4165 102.05L85.4237 100.551L85.1986 97.6971Z" fill="url(#paint0_linear_1432_24)"/>
<path d="M79.8947 106.607L67.6113 107.576L67.8364 110.43L80.1198 109.461L79.8947 106.607Z" fill="url(#paint1_linear_1432_24)"/>
<path d="M80.5236 114.503L68.2402 115.472L68.4653 118.326L80.7487 117.357L80.5236 114.503Z" fill="url(#paint2_linear_1432_24)"/>
<path d="M89.3763 131.788L70.3691 133.287L70.5943 136.141L89.6015 134.642L89.3763 131.788Z" fill="url(#paint3_linear_1432_24)"/>
<path d="M81.047 123.219L68.7637 124.188L68.9888 127.041L81.2721 126.073L81.047 123.219Z" fill="url(#paint4_linear_1432_24)"/>
<path d="M83.9259 141.133L71.6426 142.102L71.8677 144.955L84.151 143.987L83.9259 141.133Z" fill="url(#paint5_linear_1432_24)"/>
<path d="M84.7658 150.839L72.4824 151.808L72.7075 154.662L84.9909 153.693L84.7658 150.839Z" fill="url(#paint6_linear_1432_24)"/>
<path d="M92.7513 167.86L73.7441 169.359L73.9693 172.213L92.9765 170.714L92.7513 167.86Z" fill="url(#paint7_linear_1432_24)"/>
<path d="M85.7306 159.508L73.4473 160.477L73.6724 163.33L85.9557 162.362L85.7306 159.508Z" fill="url(#paint8_linear_1432_24)"/>
<path d="M87.5353 184.321L75.252 185.29L75.4771 188.144L87.7604 187.175L87.5353 184.321Z" fill="url(#paint9_linear_1432_24)"/>
<path d="M87.5392 192.198L75.2559 193.167L75.481 196.021L87.7643 195.052L87.5392 192.198Z" fill="url(#paint10_linear_1432_24)"/>
<path d="M87.0119 175.891L74.7285 176.86L74.9536 179.714L87.237 178.745L87.0119 175.891Z" fill="url(#paint11_linear_1432_24)"/>
<path d="M31.6285 194.094H150.492C152.051 194.095 153.59 194.442 155 195.108C156.409 195.774 157.654 196.744 158.644 197.948C159.635 199.152 160.347 200.56 160.729 202.071C161.111 203.583 161.154 205.16 160.855 206.69L125.288 384.47C124.812 386.856 123.527 389.004 121.648 390.551C119.77 392.097 117.415 392.947 114.982 392.955H64.0813C61.6087 392.958 59.2136 392.093 57.3135 390.511C55.4133 388.929 54.1287 386.73 53.6836 384.298L21.2194 206.553C20.9404 205.029 21.0004 203.462 21.3949 201.963C21.7895 200.465 22.5091 199.072 23.5026 197.882C24.496 196.693 25.739 195.737 27.1434 195.083C28.5478 194.428 30.079 194.09 31.6285 194.094V194.094Z" fill="url(#paint12_linear_1432_24)"/>
<path opacity="0.1" d="M114.159 393H68.5371C68.5371 393 104.482 384.057 111.525 336.191C118.567 288.325 154.707 213.949 161.051 204.502C160.868 205.418 160.96 206.243 160.777 207.159C153.665 242.566 147.276 270.816 146.371 278.156C143.978 297.726 134.53 324.19 126.217 378.091C126.217 378.411 126.079 378.869 126.056 379.431C125.53 390.08 119.873 393 114.159 393Z" fill="black"/>
<path d="M10 92.0748L41.1816 194.105H65.9506L32.639 83.5322L10 92.0748Z" fill="url(#paint13_linear_1432_24)"/>
<path d="M10 58.1218V92.0746L32.639 83.532L15.279 55.6025L10 58.1218Z" fill="white"/>
<path d="M10 58.1224L15.279 55.6031L10 49.5684V58.1224Z" fill="url(#paint14_linear_1432_24)"/>
<path d="M132.722 194.105L161.052 99.8736L132.722 94.6289L118.82 194.105H132.722Z" fill="url(#paint15_linear_1432_24)"/>
<path d="M132.723 94.6293L136.696 77.2578L163.378 82.2734L161.053 99.8739" fill="white"/>
<path d="M144.163 8C144.163 8 153.152 20.0238 139.937 35.3455C126.723 50.6672 126.127 53.988 136.697 77.2454L163.378 82.2725C163.378 82.2725 184.505 77.3256 185.868 56.576C187.368 34.6584 168.474 16.451 144.163 8Z" fill="url(#paint16_linear_1432_24)"/>
<path d="M181.871 38.5518C181.871 38.5518 181.871 81.07 149.441 79.7188Z" fill="url(#paint17_linear_1432_24)"/>
<defs>
<linearGradient id="paint0_linear_1432_24" x1="66.1884" y1="99.8809" x2="85.4149" y2="99.8809" gradientUnits="userSpaceOnUse">
<stop stop-color="#CD94EF"/>
<stop offset="1" stop-color="#7A5BF5"/>
</linearGradient>
<linearGradient id="paint1_linear_1432_24" x1="66.373" y1="110.213" x2="78.7418" y2="109.858" gradientUnits="userSpaceOnUse">
<stop stop-color="#CD94EF"/>
<stop offset="1" stop-color="#7A5BF5"/>
</linearGradient>
<linearGradient id="paint2_linear_1432_24" x1="67.001" y1="118.148" x2="79.3624" y2="117.792" gradientUnits="userSpaceOnUse">
<stop stop-color="#CD94EF"/>
<stop offset="1" stop-color="#7A5BF5"/>
</linearGradient>
<linearGradient id="paint3_linear_1432_24" x1="70.3631" y1="133.966" x2="89.5897" y2="133.966" gradientUnits="userSpaceOnUse">
<stop stop-color="#CD94EF"/>
<stop offset="1" stop-color="#7A5BF5"/>
</linearGradient>
<linearGradient id="paint4_linear_1432_24" x1="67.5373" y1="126.887" x2="79.906" y2="126.531" gradientUnits="userSpaceOnUse">
<stop stop-color="#CD94EF"/>
<stop offset="1" stop-color="#7A5BF5"/>
</linearGradient>
<linearGradient id="paint5_linear_1432_24" x1="70.4187" y1="144.854" x2="82.7874" y2="144.498" gradientUnits="userSpaceOnUse">
<stop stop-color="#CD94EF"/>
<stop offset="1" stop-color="#7A5BF5"/>
</linearGradient>
<linearGradient id="paint6_linear_1432_24" x1="71.2714" y1="154.595" x2="83.6327" y2="154.24" gradientUnits="userSpaceOnUse">
<stop stop-color="#CD94EF"/>
<stop offset="1" stop-color="#7A5BF5"/>
</linearGradient>
<linearGradient id="paint7_linear_1432_24" x1="73.743" y1="170.043" x2="92.9696" y2="170.043" gradientUnits="userSpaceOnUse">
<stop stop-color="#CD94EF"/>
<stop offset="1" stop-color="#7A5BF5"/>
</linearGradient>
<linearGradient id="paint8_linear_1432_24" x1="72.2379" y1="163.297" x2="84.5992" y2="162.941" gradientUnits="userSpaceOnUse">
<stop stop-color="#CD94EF"/>
<stop offset="1" stop-color="#7A5BF5"/>
</linearGradient>
<linearGradient id="paint9_linear_1432_24" x1="74.056" y1="188.178" x2="86.4246" y2="187.822" gradientUnits="userSpaceOnUse">
<stop stop-color="#CD94EF"/>
<stop offset="1" stop-color="#7A5BF5"/>
</linearGradient>
<linearGradient id="paint10_linear_1432_24" x1="74.0721" y1="196.073" x2="86.4334" y2="195.718" gradientUnits="userSpaceOnUse">
<stop stop-color="#CD94EF"/>
<stop offset="1" stop-color="#7A5BF5"/>
</linearGradient>
<linearGradient id="paint11_linear_1432_24" x1="73.5247" y1="179.725" x2="85.8935" y2="179.37" gradientUnits="userSpaceOnUse">
<stop stop-color="#CD94EF"/>
<stop offset="1" stop-color="#7A5BF5"/>
</linearGradient>
<linearGradient id="paint12_linear_1432_24" x1="21.0476" y1="293.547" x2="161.062" y2="293.547" gradientUnits="userSpaceOnUse">
<stop stop-color="#CD94EF"/>
<stop offset="1" stop-color="#7A5BF5"/>
</linearGradient>
<linearGradient id="paint13_linear_1432_24" x1="10" y1="138.819" x2="65.9506" y2="138.819" gradientUnits="userSpaceOnUse">
<stop stop-color="#CD94EF"/>
<stop offset="1" stop-color="#7A5BF5"/>
</linearGradient>
<linearGradient id="paint14_linear_1432_24" x1="10" y1="53.8397" x2="15.279" y2="53.8397" gradientUnits="userSpaceOnUse">
<stop stop-color="#CD94EF"/>
<stop offset="1" stop-color="#7A5BF5"/>
</linearGradient>
<linearGradient id="paint15_linear_1432_24" x1="120.962" y1="144.167" x2="159.083" y2="145.793" gradientUnits="userSpaceOnUse">
<stop stop-color="#CD94EF"/>
<stop offset="1" stop-color="#7A5BF5"/>
</linearGradient>
<linearGradient id="paint16_linear_1432_24" x1="129.345" y1="45.1363" x2="185.948" y2="45.1363" gradientUnits="userSpaceOnUse">
<stop stop-color="#CD94EF"/>
<stop offset="1" stop-color="#7A5BF5"/>
</linearGradient>
<linearGradient id="paint17_linear_1432_24" x1="152.96" y1="55.6942" x2="179.738" y2="59.2104" gradientUnits="userSpaceOnUse">
<stop stop-color="white"/>
<stop offset="1" stop-color="white" stop-opacity="0"/>
</linearGradient>
</defs>
</svg>
