<svg width="768" height="400" viewBox="0 0 768 400" fill="none" xmlns="http://www.w3.org/2000/svg">
<rect width="768" height="400" fill="#D9D9D9"/>
<path d="M61.2359 340.356L19.9235 131.169L116.678 39.9183L132.021 22.089L141.953 9.37038C142.301 8.92462 142.75 8.5681 143.263 8.3303C143.776 8.09249 144.338 7.98025 144.903 8.00285C145.468 8.02544 146.019 8.18224 146.512 8.46025C147.004 8.73827 147.423 9.12952 147.734 9.60164C156.371 22.9331 170.258 44.9826 170.258 44.9826L141.19 33.4202C140.093 32.9817 138.897 32.8491 137.73 33.0364C136.564 33.2237 135.47 33.724 134.565 34.4839L123.754 43.5604L27.0806 134.106L67.3178 340.356H61.2359Z" fill="#F9F9F9"/>
<path d="M120.551 392.999H14.0958C14.0958 392.999 19.877 341.882 63.9181 340.286C120.551 338.24 120.551 392.999 120.551 392.999Z" fill="url(#paint0_linear_1432_23)"/>
<path d="M241.328 54.5557L136.469 111.096C136.469 111.096 114.153 56.1282 157.57 32.6912C211.624 3.57706 241.328 54.5557 241.328 54.5557Z" fill="url(#paint1_linear_1432_23)"/>
<path d="M27.0905 149.797C17.6523 149.797 10.0012 142.146 10.0012 132.707C10.0012 123.269 17.6523 115.618 27.0905 115.618C36.5286 115.618 44.1797 123.269 44.1797 132.707C44.1797 142.146 36.5286 149.797 27.0905 149.797Z" fill="url(#paint2_linear_1432_23)"/>
<path d="M241.457 53.9785L385.352 214.869L172.222 317.497L136.61 110.623L241.457 53.9785Z" fill="url(#paint3_linear_1432_23)"/>
<path d="M151.434 46.335C151.434 46.335 131.061 53.9777 138.079 93.9952L151.434 46.335Z" fill="url(#paint4_linear_1432_23)"/>
<path d="M56.2734 346.299C56.2734 346.299 29.6799 352.427 19.9213 389.785L56.2734 346.299Z" fill="url(#paint5_linear_1432_23)"/>
<defs>
<linearGradient id="paint0_linear_1432_23" x1="120.551" y1="366.614" x2="14.0958" y2="366.614" gradientUnits="userSpaceOnUse">
<stop stop-color="#CD94EF"/>
<stop offset="1" stop-color="#7A5BF5"/>
</linearGradient>
<linearGradient id="paint1_linear_1432_23" x1="224.176" y1="24.2682" x2="119.354" y2="80.2526" gradientUnits="userSpaceOnUse">
<stop stop-color="#CD94EF"/>
<stop offset="1" stop-color="#7A5BF5"/>
</linearGradient>
<linearGradient id="paint2_linear_1432_23" x1="42.1331" y1="124.602" x2="12.0478" y2="140.824" gradientUnits="userSpaceOnUse">
<stop stop-color="#CD94EF"/>
<stop offset="1" stop-color="#7A5BF5"/>
</linearGradient>
<linearGradient id="paint3_linear_1432_23" x1="137.987" y1="-19.9965" x2="297.914" y2="305.117" gradientUnits="userSpaceOnUse">
<stop stop-color="white"/>
<stop offset="1" stop-color="white" stop-opacity="0"/>
</linearGradient>
<linearGradient id="paint4_linear_1432_23" x1="127.835" y1="35.7554" x2="156.209" y2="93.4517" gradientUnits="userSpaceOnUse">
<stop stop-color="white" stop-opacity="0"/>
<stop offset="1" stop-color="white"/>
</linearGradient>
<linearGradient id="paint5_linear_1432_23" x1="36.1704" y1="319.814" x2="38.6606" y2="393.034" gradientUnits="userSpaceOnUse">
<stop stop-color="white" stop-opacity="0"/>
<stop offset="1" stop-color="white"/>
</linearGradient>
</defs>
</svg>
