<svg width="768" height="400" viewBox="0 0 768 400" fill="none" xmlns="http://www.w3.org/2000/svg">
<rect width="768" height="400" fill="#D9D9D9"/>
<path d="M63.2303 345.305L20.3082 127.968L120.832 33.1619L136.773 14.638L147.092 1.42377C147.454 0.960644 147.92 0.590238 148.453 0.343166C148.986 0.0960941 149.57 -0.020522 150.157 0.00295686C150.744 0.0264357 151.317 0.189336 151.829 0.478187C152.34 0.767038 152.776 1.17353 153.099 1.66404C162.072 15.5149 176.5 38.4235 176.5 38.4235L146.3 26.4106C145.16 25.9551 143.917 25.8173 142.705 26.0119C141.493 26.2065 140.356 26.7263 139.416 27.5158L128.184 36.9459L27.7442 131.019L69.5491 345.305H63.2303Z" fill="#F9F9F9"/>
<path d="M124.855 400.001H14.2527C14.2527 400.001 20.2591 346.892 66.0163 345.234C124.855 343.108 124.855 400.001 124.855 400.001Z" fill="url(#paint0_linear_1429_54)"/>
<path d="M250.34 48.3699L141.395 107.113C141.395 107.113 118.21 50.0036 163.318 25.6535C219.479 -4.59504 250.34 48.3699 250.34 48.3699Z" fill="url(#paint1_linear_1429_54)"/>
<path d="M27.7547 147.321C17.9488 147.321 9.99963 139.371 9.99963 129.566C9.99963 119.76 17.9488 111.811 27.7547 111.811C37.5606 111.811 45.5098 119.76 45.5098 129.566C45.5098 139.371 37.5606 147.321 27.7547 147.321Z" fill="url(#paint2_linear_1429_54)"/>
<path d="M250.474 47.7695L399.975 214.929L178.541 321.556L141.541 106.621L250.474 47.7695Z" fill="url(#paint3_linear_1429_54)"/>
<path d="M156.941 39.8291C156.941 39.8291 135.775 47.7696 143.067 89.3463L156.941 39.8291Z" fill="url(#paint4_linear_1429_54)"/>
<path d="M58.0762 351.479C58.0762 351.479 30.4465 357.846 20.3076 396.66L58.0762 351.479Z" fill="url(#paint5_linear_1429_54)"/>
<defs>
<linearGradient id="paint0_linear_1429_54" x1="124.855" y1="372.587" x2="14.2527" y2="372.587" gradientUnits="userSpaceOnUse">
<stop stop-color="#CD94EF"/>
<stop offset="1" stop-color="#7A5BF5"/>
</linearGradient>
<linearGradient id="paint1_linear_1429_54" x1="232.519" y1="16.9023" x2="123.613" y2="75.0681" gradientUnits="userSpaceOnUse">
<stop stop-color="#CD94EF"/>
<stop offset="1" stop-color="#7A5BF5"/>
</linearGradient>
<linearGradient id="paint2_linear_1429_54" x1="43.3835" y1="121.145" x2="12.1259" y2="137.999" gradientUnits="userSpaceOnUse">
<stop stop-color="#CD94EF"/>
<stop offset="1" stop-color="#7A5BF5"/>
</linearGradient>
<linearGradient id="paint3_linear_1429_54" x1="142.972" y1="-29.0878" x2="309.13" y2="308.693" gradientUnits="userSpaceOnUse">
<stop stop-color="white"/>
<stop offset="1" stop-color="white" stop-opacity="0"/>
</linearGradient>
<linearGradient id="paint4_linear_1429_54" x1="132.423" y1="28.8373" x2="161.903" y2="88.7817" gradientUnits="userSpaceOnUse">
<stop stop-color="white" stop-opacity="0"/>
<stop offset="1" stop-color="white"/>
</linearGradient>
<linearGradient id="paint5_linear_1429_54" x1="37.1898" y1="323.962" x2="39.777" y2="400.035" gradientUnits="userSpaceOnUse">
<stop stop-color="white" stop-opacity="0"/>
<stop offset="1" stop-color="white"/>
</linearGradient>
</defs>
</svg>
