<svg width="768" height="400" viewBox="0 0 768 400" fill="none" xmlns="http://www.w3.org/2000/svg">
<rect width="768" height="400" fill="#D9D9D9"/>
<path d="M578.185 42.804C587.63 30.9427 592.666 19.2409 589.434 16.6673C586.202 14.0937 575.926 21.6229 566.481 33.4842C557.036 45.3455 551.999 57.0472 555.231 59.6208C558.463 62.1944 568.74 54.6653 578.185 42.804Z" fill="url(#paint0_linear_1426_39)"/>
<path d="M588.097 16.2275L503.465 15.3467C504.358 35.1959 509.965 62.4886 513.749 86.4814C518.811 118.588 511.268 129.79 512.509 147.431C512.509 147.431 518.104 179.277 518.836 190.554C521.701 234.941 526.961 263.549 523.649 292.058C523.5 294.812 523.537 299.216 520.498 302.342C515.449 307.528 503.477 312.813 475.738 313.172C420.259 313.917 278.635 334.932 289.341 248.352C300.047 161.772 347.115 127.296 347.115 127.296L226.903 124.815C226.903 124.815 238.304 181.138 153.163 197.104C68.0218 213.07 11.9229 282.803 10 329.052H622.846C622.846 329.052 600.515 193.729 553.882 141.588C507.249 89.4464 588.097 16.2275 588.097 16.2275Z" fill="url(#paint1_linear_1426_39)"/>
<path d="M153.137 400C201.09 400 239.965 361.126 239.965 313.172C239.965 265.218 201.09 226.344 153.137 226.344C105.183 226.344 66.3086 265.218 66.3086 313.172C66.3086 361.126 105.183 400 153.137 400Z" fill="url(#paint2_linear_1426_39)"/>
<path d="M153.264 361.925C179.019 361.925 199.898 341.046 199.898 315.292C199.898 289.537 179.019 268.658 153.264 268.658C127.509 268.658 106.631 289.537 106.631 315.292C106.631 341.046 127.509 361.925 153.264 361.925Z" fill="white"/>
<path d="M640.687 400C688.641 400 727.515 361.126 727.515 313.172C727.515 265.218 688.641 226.344 640.687 226.344C592.734 226.344 553.859 265.218 553.859 313.172C553.859 361.126 592.734 400 640.687 400Z" fill="url(#paint3_linear_1426_39)"/>
<path d="M640.809 361.925C666.564 361.925 687.442 341.046 687.442 315.292C687.442 289.537 666.564 268.658 640.809 268.658C615.054 268.658 594.176 289.537 594.176 315.292C594.176 341.046 615.054 361.925 640.809 361.925Z" fill="white"/>
<path d="M176.338 137.183H370.129C370.129 137.183 374.93 105.523 361.445 104.568C347.959 103.613 217.537 104.568 217.537 104.568C217.537 104.568 189.773 106.479 176.338 137.183Z" fill="url(#paint4_linear_1426_39)"/>
<path d="M503.465 30.6919C511.94 30.6919 518.811 23.8213 518.811 15.346C518.811 6.87062 511.94 0 503.465 0C494.99 0 488.119 6.87062 488.119 15.346C488.119 23.8213 494.99 30.6919 503.465 30.6919Z" fill="white"/>
<path d="M238.787 328.975L275.012 329.049C275.012 329.049 309.649 258.845 269.492 211.554C258.426 198.528 242.199 191.705 225.079 190.663C173.607 187.586 137.581 197.561 102.101 213.862C72.6746 227.73 47.5028 249.231 29.2041 276.126C10.9428 303.58 10 329.049 10 329.049L238.787 328.975Z" fill="url(#paint5_linear_1426_39)"/>
<path d="M554.331 322.339L704.862 254.69C704.862 254.69 669.109 207.66 604.14 234.034C598.097 236.849 592.346 240.252 586.97 244.195C572.964 255.013 544.902 280.655 554.331 322.339Z" fill="url(#paint6_linear_1426_39)"/>
<path d="M220.177 346.63C220.177 346.63 221.281 368.551 181.434 378.128L220.177 346.63Z" fill="url(#paint7_linear_1426_39)"/>
<path d="M715.925 317.936C715.925 317.936 723.555 338.517 688.422 359.607L715.925 317.936Z" fill="url(#paint8_linear_1426_39)"/>
<defs>
<linearGradient id="paint0_linear_1426_39" x1="566.471" y1="33.4764" x2="578.185" y2="42.804" gradientUnits="userSpaceOnUse">
<stop stop-color="#CD94EF"/>
<stop offset="1" stop-color="#7A5BF5"/>
</linearGradient>
<linearGradient id="paint1_linear_1426_39" x1="141.861" y1="81.8789" x2="609.609" y2="351.94" gradientUnits="userSpaceOnUse">
<stop stop-color="#CD94EF"/>
<stop offset="1" stop-color="#7A5BF5"/>
</linearGradient>
<linearGradient id="paint2_linear_1426_39" x1="66.3086" y1="313.172" x2="239.965" y2="313.172" gradientUnits="userSpaceOnUse">
<stop stop-color="#CD94EF"/>
<stop offset="1" stop-color="#7A5BF5"/>
</linearGradient>
<linearGradient id="paint3_linear_1426_39" x1="553.847" y1="313.172" x2="727.515" y2="313.172" gradientUnits="userSpaceOnUse">
<stop stop-color="#CD94EF"/>
<stop offset="1" stop-color="#7A5BF5"/>
</linearGradient>
<linearGradient id="paint4_linear_1426_39" x1="176.338" y1="120.658" x2="370.96" y2="120.658" gradientUnits="userSpaceOnUse">
<stop stop-color="#CD94EF"/>
<stop offset="1" stop-color="#7A5BF5"/>
</linearGradient>
<linearGradient id="paint5_linear_1426_39" x1="10" y1="259.577" x2="288.894" y2="259.577" gradientUnits="userSpaceOnUse">
<stop stop-color="white"/>
<stop offset="1" stop-color="white" stop-opacity="0"/>
</linearGradient>
<linearGradient id="paint6_linear_1426_39" x1="552.433" y1="274.167" x2="704.862" y2="274.167" gradientUnits="userSpaceOnUse">
<stop stop-color="white"/>
<stop offset="1" stop-color="white" stop-opacity="0"/>
</linearGradient>
<linearGradient id="paint7_linear_1426_39" x1="238.933" y1="365.833" x2="173.941" y2="362.769" gradientUnits="userSpaceOnUse">
<stop stop-color="white" stop-opacity="0"/>
<stop offset="1" stop-color="white"/>
</linearGradient>
<linearGradient id="paint8_linear_1426_39" x1="739.56" y1="328.964" x2="676.822" y2="345.455" gradientUnits="userSpaceOnUse">
<stop stop-color="white" stop-opacity="0"/>
<stop offset="1" stop-color="white"/>
</linearGradient>
</defs>
</svg>
