<svg width="768" height="400" viewBox="0 0 768 400" fill="none" xmlns="http://www.w3.org/2000/svg">
<rect width="768" height="400" fill="#D9D9D9"/>
<path d="M568.185 42.804C577.63 30.9427 582.666 19.2409 579.434 16.6673C576.202 14.0937 565.926 21.6229 556.481 33.4842C547.036 45.3455 541.999 57.0472 545.231 59.6208C548.463 62.1944 558.74 54.6653 568.185 42.804Z" fill="url(#paint0_linear_1424_48)"/>
<path d="M578.097 16.2275L493.465 15.3467C494.358 35.1959 499.965 62.4886 503.749 86.4814C508.811 118.588 501.268 129.79 502.509 147.431C502.509 147.431 508.104 179.277 508.836 190.554C511.701 234.941 516.961 263.549 513.649 292.058C513.5 294.812 513.537 299.216 510.498 302.342C505.449 307.528 493.477 312.813 465.738 313.172C410.259 313.917 268.635 334.932 279.341 248.352C290.047 161.772 337.115 127.296 337.115 127.296L216.903 124.815C216.903 124.815 228.304 181.138 143.163 197.104C58.0218 213.07 1.9229 282.803 0 329.052H612.846C612.846 329.052 590.515 193.729 543.882 141.588C497.249 89.4464 578.097 16.2275 578.097 16.2275Z" fill="url(#paint1_linear_1424_48)"/>
<path d="M143.137 400C191.09 400 229.965 361.126 229.965 313.172C229.965 265.218 191.09 226.344 143.137 226.344C95.1828 226.344 56.3086 265.218 56.3086 313.172C56.3086 361.126 95.1828 400 143.137 400Z" fill="url(#paint2_linear_1424_48)"/>
<path d="M143.264 361.925C169.019 361.925 189.898 341.046 189.898 315.292C189.898 289.537 169.019 268.658 143.264 268.658C117.509 268.658 96.6309 289.537 96.6309 315.292C96.6309 341.046 117.509 361.925 143.264 361.925Z" fill="white"/>
<path d="M630.687 400C678.641 400 717.515 361.126 717.515 313.172C717.515 265.218 678.641 226.344 630.687 226.344C582.734 226.344 543.859 265.218 543.859 313.172C543.859 361.126 582.734 400 630.687 400Z" fill="url(#paint3_linear_1424_48)"/>
<path d="M630.809 361.925C656.564 361.925 677.442 341.046 677.442 315.292C677.442 289.537 656.564 268.658 630.809 268.658C605.054 268.658 584.176 289.537 584.176 315.292C584.176 341.046 605.054 361.925 630.809 361.925Z" fill="white"/>
<path d="M166.338 137.183H360.129C360.129 137.183 364.93 105.523 351.445 104.568C337.959 103.613 207.538 104.568 207.538 104.568C207.538 104.568 179.773 106.479 166.338 137.183Z" fill="url(#paint4_linear_1424_48)"/>
<path d="M493.465 30.6919C501.94 30.6919 508.811 23.8213 508.811 15.346C508.811 6.87062 501.94 0 493.465 0C484.99 0 478.119 6.87062 478.119 15.346C478.119 23.8213 484.99 30.6919 493.465 30.6919Z" fill="white"/>
<path d="M228.787 328.975L265.012 329.049C265.012 329.049 299.649 258.845 259.492 211.554C248.426 198.528 232.199 191.705 215.079 190.663C163.607 187.586 127.581 197.561 92.1005 213.862C62.6746 227.73 37.5028 249.231 19.2041 276.126C0.942839 303.58 0 329.049 0 329.049L228.787 328.975Z" fill="url(#paint5_linear_1424_48)"/>
<path d="M544.331 322.339L694.862 254.69C694.862 254.69 659.109 207.66 594.14 234.034C588.097 236.849 582.346 240.252 576.97 244.195C562.964 255.013 534.902 280.655 544.331 322.339Z" fill="url(#paint6_linear_1424_48)"/>
<path d="M210.177 346.63C210.177 346.63 211.281 368.551 171.434 378.128L210.177 346.63Z" fill="url(#paint7_linear_1424_48)"/>
<path d="M705.925 317.936C705.925 317.936 713.555 338.517 678.422 359.607L705.925 317.936Z" fill="url(#paint8_linear_1424_48)"/>
<defs>
<linearGradient id="paint0_linear_1424_48" x1="556.471" y1="33.4764" x2="568.185" y2="42.804" gradientUnits="userSpaceOnUse">
<stop stop-color="#CD94EF"/>
<stop offset="1" stop-color="#7A5BF5"/>
</linearGradient>
<linearGradient id="paint1_linear_1424_48" x1="131.861" y1="81.8789" x2="599.609" y2="351.94" gradientUnits="userSpaceOnUse">
<stop stop-color="#CD94EF"/>
<stop offset="1" stop-color="#7A5BF5"/>
</linearGradient>
<linearGradient id="paint2_linear_1424_48" x1="56.3086" y1="313.172" x2="229.965" y2="313.172" gradientUnits="userSpaceOnUse">
<stop stop-color="#CD94EF"/>
<stop offset="1" stop-color="#7A5BF5"/>
</linearGradient>
<linearGradient id="paint3_linear_1424_48" x1="543.847" y1="313.172" x2="717.515" y2="313.172" gradientUnits="userSpaceOnUse">
<stop stop-color="#CD94EF"/>
<stop offset="1" stop-color="#7A5BF5"/>
</linearGradient>
<linearGradient id="paint4_linear_1424_48" x1="166.338" y1="120.658" x2="360.96" y2="120.658" gradientUnits="userSpaceOnUse">
<stop stop-color="#CD94EF"/>
<stop offset="1" stop-color="#7A5BF5"/>
</linearGradient>
<linearGradient id="paint5_linear_1424_48" x1="0" y1="259.577" x2="278.894" y2="259.577" gradientUnits="userSpaceOnUse">
<stop stop-color="white"/>
<stop offset="1" stop-color="white" stop-opacity="0"/>
</linearGradient>
<linearGradient id="paint6_linear_1424_48" x1="542.433" y1="274.167" x2="694.862" y2="274.167" gradientUnits="userSpaceOnUse">
<stop stop-color="white"/>
<stop offset="1" stop-color="white" stop-opacity="0"/>
</linearGradient>
<linearGradient id="paint7_linear_1424_48" x1="228.933" y1="365.833" x2="163.941" y2="362.769" gradientUnits="userSpaceOnUse">
<stop stop-color="white" stop-opacity="0"/>
<stop offset="1" stop-color="white"/>
</linearGradient>
<linearGradient id="paint8_linear_1424_48" x1="729.56" y1="328.964" x2="666.822" y2="345.455" gradientUnits="userSpaceOnUse">
<stop stop-color="white" stop-opacity="0"/>
<stop offset="1" stop-color="white"/>
</linearGradient>
</defs>
</svg>
