<svg width="768" height="400" viewBox="0 0 768 400" fill="none" xmlns="http://www.w3.org/2000/svg">
<rect width="768" height="400" fill="#D9D9D9"/>
<path d="M140.793 46.3115C140.793 46.3115 72.8931 84.1468 90.4201 362.379H252.502C252.502 362.379 263.456 124.216 193.365 46.3115H140.793Z" fill="#F9F9F9"/>
<path d="M124.988 362.011V379.572H118.955V393.462H104.654V400H238.297V392.238H222.662V381.001H215.764V362.011H124.988Z" fill="#F9F9F9"/>
<path d="M169.249 245.375C198.747 245.375 222.66 221.462 222.66 191.964C222.66 162.466 198.747 138.553 169.249 138.553C139.751 138.553 115.838 162.466 115.838 191.964C115.838 221.462 139.751 245.375 169.249 245.375Z" fill="url(#paint0_linear_1424_47)"/>
<path d="M169.249 237.38C193.694 237.38 213.511 217.563 213.511 193.118C213.511 168.672 193.694 148.855 169.249 148.855C144.803 148.855 124.986 168.672 124.986 193.118C124.986 217.563 144.803 237.38 169.249 237.38Z" fill="white"/>
<path d="M169.697 224.971C187.289 224.971 201.55 210.71 201.55 193.118C201.55 175.526 187.289 161.265 169.697 161.265C152.105 161.265 137.844 175.526 137.844 193.118C137.844 210.71 152.105 224.971 169.697 224.971Z" fill="url(#paint1_linear_1424_47)"/>
<path d="M100.22 337.63H17.4894C15.363 337.636 13.2606 337.18 11.3278 336.294C9.395 335.407 7.67793 334.111 6.29543 332.495C0.304773 325.443 -6.30207 311.81 11.7384 296.029C38.1486 272.923 96.258 245.374 96.258 245.374L100.22 337.63Z" fill="url(#paint2_linear_1424_47)"/>
<path d="M238.293 331.452H318.114C320.182 331.449 322.224 330.987 324.092 330.099C325.96 329.211 327.607 327.919 328.915 326.317C334.7 319.265 341.067 305.632 323.66 289.851C298.174 266.744 242.11 239.204 242.11 239.204L238.293 331.452Z" fill="url(#paint3_linear_1424_47)"/>
<path d="M173.851 294.547H168.57C164.335 294.547 160.902 297.98 160.902 302.215V373.016C160.902 377.251 164.335 380.684 168.57 380.684H173.851C178.086 380.684 181.519 377.251 181.519 373.016V302.215C181.519 297.98 178.086 294.547 173.851 294.547Z" fill="url(#paint4_linear_1424_47)"/>
<path d="M126.997 62.2816H203.584C203.865 62.2695 204.139 62.1836 204.376 62.0326C204.614 61.8817 204.808 61.6708 204.939 61.4213C205.07 61.1717 205.133 60.8922 205.122 60.6106C205.111 60.329 205.026 60.0553 204.876 59.8169L168.975 0.766077C168.848 0.540394 168.666 0.351278 168.445 0.217146C168.223 0.0830137 167.971 0.00842931 167.713 0.000673525C167.454 -0.00708226 167.198 0.052256 166.969 0.17289C166.741 0.293525 166.547 0.471341 166.407 0.689045L125.722 59.7398C125.553 59.978 125.451 60.2579 125.429 60.5495C125.406 60.841 125.464 61.1332 125.595 61.3945C125.726 61.6559 125.926 61.8766 126.173 62.0329C126.42 62.1892 126.705 62.2751 126.997 62.2816V62.2816Z" fill="url(#paint5_linear_1424_47)"/>
<path d="M194.56 189.602C194.56 189.602 199.695 203.534 175.938 217.843L194.56 189.602Z" fill="url(#paint6_linear_1424_47)"/>
<defs>
<linearGradient id="paint0_linear_1424_47" x1="115.846" y1="191.964" x2="222.66" y2="191.964" gradientUnits="userSpaceOnUse">
<stop stop-color="#CD94EF"/>
<stop offset="1" stop-color="#7A5BF5"/>
</linearGradient>
<linearGradient id="paint1_linear_1424_47" x1="137.835" y1="193.118" x2="201.55" y2="193.118" gradientUnits="userSpaceOnUse">
<stop stop-color="#CD94EF"/>
<stop offset="1" stop-color="#7A5BF5"/>
</linearGradient>
<linearGradient id="paint2_linear_1424_47" x1="-0.0033173" y1="291.502" x2="100.22" y2="291.502" gradientUnits="userSpaceOnUse">
<stop stop-color="#CD94EF"/>
<stop offset="1" stop-color="#7A5BF5"/>
</linearGradient>
<linearGradient id="paint3_linear_1424_47" x1="335.57" y1="285.324" x2="238.496" y2="285.324" gradientUnits="userSpaceOnUse">
<stop stop-color="#CD94EF"/>
<stop offset="1" stop-color="#7A5BF5"/>
</linearGradient>
<linearGradient id="paint4_linear_1424_47" x1="181.519" y1="337.611" x2="160.902" y2="337.611" gradientUnits="userSpaceOnUse">
<stop stop-color="#CD94EF"/>
<stop offset="1" stop-color="#7A5BF5"/>
</linearGradient>
<linearGradient id="paint5_linear_1424_47" x1="125.465" y1="31.1729" x2="205.116" y2="31.1729" gradientUnits="userSpaceOnUse">
<stop stop-color="#CD94EF"/>
<stop offset="1" stop-color="#7A5BF5"/>
</linearGradient>
<linearGradient id="paint6_linear_1424_47" x1="210.566" y1="197.054" x2="168.085" y2="208.215" gradientUnits="userSpaceOnUse">
<stop stop-color="white" stop-opacity="0"/>
<stop offset="1" stop-color="white"/>
</linearGradient>
</defs>
</svg>
