<svg width="400" height="400" viewBox="0 0 400 400" fill="none" xmlns="http://www.w3.org/2000/svg">
<rect width="400" height="400" fill="#D9D9D9"/>
<path d="M177.5 194.612C181.642 194.612 185 191.291 185 187.195C185 183.099 181.642 179.778 177.5 179.778C173.358 179.778 170 183.099 170 187.195C170 191.291 173.358 194.612 177.5 194.612Z" fill="black" fill-opacity="0.15"/>
<path d="M192.5 209.445L185 199.556L170 219.334H230L207.5 189.667L192.5 209.445Z" fill="black" fill-opacity="0.15"/>
<path d="M240 160H160C154.485 160 150 164.435 150 169.889V229.222C150 234.676 154.485 239.111 160 239.111H240C245.515 239.111 250 234.676 250 229.222V169.889C250 164.435 245.515 160 240 160ZM160 229.222V169.889H240L240.01 229.222H160Z" fill="black" fill-opacity="0.15"/>
</svg>
