<svg width="768" height="400" viewBox="0 0 768 400" fill="none" xmlns="http://www.w3.org/2000/svg">
<rect width="768" height="400" fill="#D9D9D9"/>
<path d="M62.2773 71.9437L110.057 68.4102L119.884 193.356H76.1853L62.2773 71.9437Z" fill="white"/>
<path d="M89.1286 93.1914L69.3809 94.749L69.6147 97.7141L89.3625 96.1565L89.1286 93.1914Z" fill="url(#paint0_linear_1426_41)"/>
<path d="M83.6174 102.449L70.8555 103.456L71.0893 106.421L83.8513 105.415L83.6174 102.449Z" fill="url(#paint1_linear_1426_41)"/>
<path d="M84.2717 110.653L71.5098 111.659L71.7436 114.624L84.5056 113.618L84.2717 110.653Z" fill="url(#paint2_linear_1426_41)"/>
<path d="M93.4684 128.61L73.7207 130.168L73.9546 133.133L93.7023 131.575L93.4684 128.61Z" fill="url(#paint3_linear_1426_41)"/>
<path d="M84.8146 119.707L72.0527 120.714L72.2866 123.679L85.0485 122.672L84.8146 119.707Z" fill="url(#paint4_linear_1426_41)"/>
<path d="M87.8068 138.32L75.0449 139.326L75.2788 142.291L88.0407 141.285L87.8068 138.32Z" fill="url(#paint5_linear_1426_41)"/>
<path d="M88.6779 148.404L75.916 149.41L76.1499 152.375L88.9118 151.369L88.6779 148.404Z" fill="url(#paint6_linear_1426_41)"/>
<path d="M96.9762 166.088L77.2285 167.646L77.4624 170.611L97.2101 169.053L96.9762 166.088Z" fill="url(#paint7_linear_1426_41)"/>
<path d="M89.6818 157.41L76.9199 158.417L77.1538 161.382L89.9157 160.375L89.6818 157.41Z" fill="url(#paint8_linear_1426_41)"/>
<path d="M91.5568 183.191L78.7949 184.197L79.0288 187.162L91.7907 186.156L91.5568 183.191Z" fill="url(#paint9_linear_1426_41)"/>
<path d="M91.5607 191.374L78.7988 192.381L79.0327 195.346L91.7946 194.339L91.5607 191.374Z" fill="url(#paint10_linear_1426_41)"/>
<path d="M91.0119 174.433L78.25 175.439L78.4839 178.405L91.2458 177.398L91.0119 174.433Z" fill="url(#paint11_linear_1426_41)"/>
<path d="M33.4705 193.344H156.965C158.585 193.345 160.184 193.705 161.648 194.397C163.113 195.09 164.406 196.097 165.435 197.348C166.464 198.599 167.203 200.062 167.601 201.632C167.998 203.202 168.043 204.841 167.732 206.431L130.779 391.137C130.285 393.616 128.949 395.848 126.997 397.455C125.046 399.062 122.599 399.944 120.071 399.953H67.1876C64.6187 399.956 62.1303 399.057 60.1561 397.414C58.1819 395.77 56.8473 393.485 56.3848 390.959L22.6558 206.288C22.366 204.705 22.4282 203.077 22.8382 201.52C23.2481 199.963 23.9957 198.515 25.0279 197.28C26.0601 196.045 27.3515 195.051 28.8106 194.371C30.2697 193.691 31.8606 193.34 33.4705 193.344V193.344Z" fill="url(#paint12_linear_1426_41)"/>
<path opacity="0.1" d="M119.217 399.999H71.8184C71.8184 399.999 109.164 390.708 116.481 340.977C123.798 291.246 161.346 213.973 167.937 204.157C167.747 205.109 167.842 205.966 167.651 206.917C160.263 243.704 153.624 273.055 152.685 280.681C150.198 301.013 140.383 328.508 131.745 384.509C131.745 384.842 131.602 385.318 131.579 385.901C131.031 396.965 125.154 399.999 119.217 399.999Z" fill="black"/>
<path d="M11 87.35L43.3965 193.355H69.1304L34.521 78.4746L11 87.35Z" fill="url(#paint13_linear_1426_41)"/>
<path d="M11 52.0744V87.3501L34.521 78.4746L16.4847 49.457L11 52.0744Z" fill="white"/>
<path d="M11 52.0748L16.4847 49.4574L11 43.1875V52.0748Z" fill="url(#paint14_linear_1426_41)"/>
<path d="M138.504 193.356L167.938 95.4529L138.504 90.0039L124.061 193.356H138.504Z" fill="url(#paint15_linear_1426_41)"/>
<path d="M138.504 90.0043L142.632 71.9561L170.353 77.1671L167.938 95.4533" fill="white"/>
<path d="M150.391 0C150.391 0 159.73 12.4922 146.001 28.4109C132.271 44.3295 131.652 47.7797 142.634 71.9432L170.354 77.1662C170.354 77.1662 192.305 72.0265 193.721 50.4685C195.279 27.697 175.649 8.78024 150.391 0Z" fill="url(#paint16_linear_1426_41)"/>
<path d="M189.566 31.7422C189.566 31.7422 189.566 75.917 155.873 74.5131Z" fill="url(#paint17_linear_1426_41)"/>
<defs>
<linearGradient id="paint0_linear_1426_41" x1="69.3777" y1="95.4603" x2="89.3533" y2="95.4603" gradientUnits="userSpaceOnUse">
<stop stop-color="#CD94EF"/>
<stop offset="1" stop-color="#7A5BF5"/>
</linearGradient>
<linearGradient id="paint1_linear_1426_41" x1="69.5689" y1="106.196" x2="82.4195" y2="105.826" gradientUnits="userSpaceOnUse">
<stop stop-color="#CD94EF"/>
<stop offset="1" stop-color="#7A5BF5"/>
</linearGradient>
<linearGradient id="paint2_linear_1426_41" x1="70.2223" y1="114.44" x2="83.0652" y2="114.07" gradientUnits="userSpaceOnUse">
<stop stop-color="#CD94EF"/>
<stop offset="1" stop-color="#7A5BF5"/>
</linearGradient>
<linearGradient id="paint3_linear_1426_41" x1="73.7144" y1="130.873" x2="93.6901" y2="130.873" gradientUnits="userSpaceOnUse">
<stop stop-color="#CD94EF"/>
<stop offset="1" stop-color="#7A5BF5"/>
</linearGradient>
<linearGradient id="paint4_linear_1426_41" x1="70.7786" y1="123.519" x2="83.6292" y2="123.149" gradientUnits="userSpaceOnUse">
<stop stop-color="#CD94EF"/>
<stop offset="1" stop-color="#7A5BF5"/>
</linearGradient>
<linearGradient id="paint5_linear_1426_41" x1="73.7733" y1="142.186" x2="86.6239" y2="141.816" gradientUnits="userSpaceOnUse">
<stop stop-color="#CD94EF"/>
<stop offset="1" stop-color="#7A5BF5"/>
</linearGradient>
<linearGradient id="paint6_linear_1426_41" x1="74.6578" y1="152.306" x2="87.5008" y2="151.937" gradientUnits="userSpaceOnUse">
<stop stop-color="#CD94EF"/>
<stop offset="1" stop-color="#7A5BF5"/>
</linearGradient>
<linearGradient id="paint7_linear_1426_41" x1="77.2273" y1="168.356" x2="97.2029" y2="168.356" gradientUnits="userSpaceOnUse">
<stop stop-color="#CD94EF"/>
<stop offset="1" stop-color="#7A5BF5"/>
</linearGradient>
<linearGradient id="paint8_linear_1426_41" x1="75.6634" y1="161.347" x2="88.5063" y2="160.978" gradientUnits="userSpaceOnUse">
<stop stop-color="#CD94EF"/>
<stop offset="1" stop-color="#7A5BF5"/>
</linearGradient>
<linearGradient id="paint9_linear_1426_41" x1="77.5523" y1="187.198" x2="90.4029" y2="186.828" gradientUnits="userSpaceOnUse">
<stop stop-color="#CD94EF"/>
<stop offset="1" stop-color="#7A5BF5"/>
</linearGradient>
<linearGradient id="paint10_linear_1426_41" x1="77.569" y1="195.4" x2="90.4119" y2="195.031" gradientUnits="userSpaceOnUse">
<stop stop-color="#CD94EF"/>
<stop offset="1" stop-color="#7A5BF5"/>
</linearGradient>
<linearGradient id="paint11_linear_1426_41" x1="76.9993" y1="178.416" x2="89.8499" y2="178.047" gradientUnits="userSpaceOnUse">
<stop stop-color="#CD94EF"/>
<stop offset="1" stop-color="#7A5BF5"/>
</linearGradient>
<linearGradient id="paint12_linear_1426_41" x1="22.4774" y1="296.672" x2="167.946" y2="296.672" gradientUnits="userSpaceOnUse">
<stop stop-color="#CD94EF"/>
<stop offset="1" stop-color="#7A5BF5"/>
</linearGradient>
<linearGradient id="paint13_linear_1426_41" x1="11" y1="135.915" x2="69.1304" y2="135.915" gradientUnits="userSpaceOnUse">
<stop stop-color="#CD94EF"/>
<stop offset="1" stop-color="#7A5BF5"/>
</linearGradient>
<linearGradient id="paint14_linear_1426_41" x1="11" y1="47.6252" x2="16.4847" y2="47.6252" gradientUnits="userSpaceOnUse">
<stop stop-color="#CD94EF"/>
<stop offset="1" stop-color="#7A5BF5"/>
</linearGradient>
<linearGradient id="paint15_linear_1426_41" x1="126.285" y1="141.472" x2="165.892" y2="143.161" gradientUnits="userSpaceOnUse">
<stop stop-color="#CD94EF"/>
<stop offset="1" stop-color="#7A5BF5"/>
</linearGradient>
<linearGradient id="paint16_linear_1426_41" x1="134.996" y1="38.5831" x2="193.804" y2="38.5831" gradientUnits="userSpaceOnUse">
<stop stop-color="#CD94EF"/>
<stop offset="1" stop-color="#7A5BF5"/>
</linearGradient>
<linearGradient id="paint17_linear_1426_41" x1="159.529" y1="49.5525" x2="187.35" y2="53.2057" gradientUnits="userSpaceOnUse">
<stop stop-color="white"/>
<stop offset="1" stop-color="white" stop-opacity="0"/>
</linearGradient>
</defs>
</svg>
